<svg xmlns="http://www.w3.org/2000/svg" viewBox="0 0 64 64">
  <defs>
    <linearGradient id="g" x1="0" y1="0" x2="1" y2="1">
      <stop offset="0" stop-color="#7aa8ff"/>
      <stop offset="1" stop-color="#4ed5c2"/>
    </linearGradient>
  </defs>
  <rect width="64" height="64" rx="18" fill="#10233f"/>
  <rect x="10" y="10" width="44" height="44" rx="14" fill="url(#g)"/>
  <path d="M41 24.5c-2.4-2.1-5-3.1-8-3.1-6.3 0-10.7 4.4-10.7 10.8 0 6.3 4.4 10.7 10.7 10.7 3.2 0 6-1 8.2-3l-3.1-3.7a7.1 7.1 0 0 1-4.8 1.8c-3.4 0-5.6-2.3-5.6-5.8 0-3.6 2.2-5.9 5.6-5.9 1.8 0 3.3.6 4.7 1.8z" fill="#10233f"/>
</svg>
